# AST/ASF file generated using VICON BodyLanguage
# -----------------------------------------------
:version 1.10
:name VICON
:units
  mass 1.0
  length 0.45
  angle deg
:documentation
   .ast/.asf automatically generated from VICON data using
   VICON BodyBuilder and BodyLanguage model FoxedUp or BRILLIANT.MOD
:root
   order TX TY TZ RX RY RZ
   axis XYZ
   position 0 0 0  
   orientation 0 0 0 
:bonedata
  begin
     id 1 
     name lhipjoint
     direction 0.541323 -0.757556 0.364798 
     length 2.47576 
     axis 0 0 0  XYZ
  end
  begin
     id 2 
     name lfemur
     direction 0.34202 -0.939693 0  
     length 7.46493  
     axis 0 0 20  XYZ
    dof rx ry rz
    limits (-160.0 20.0)
           (-70.0 70.0)
           (-60.0 70.0)
  end
  begin
     id 3 
     name ltibia
     direction 0.34202 -0.939693 0   
     length 7.73805   
     axis 0 0 20   XYZ
    dof rx
    limits (-10.0 170.0)
  end
  begin
     id 4 
     name lfoot
     direction 0.107174 -0.294458 0.949636   
     length 2.25864   
     axis -90 7.62852e-016 20   XYZ
    dof rx rz
    limits (-45.0 90.0)
           (-70.0 20.0)
  end
  begin
     id 5 
     name ltoes
     direction 1.53606e-011 -4.21934e-011 1   
     length 1.12451   
     axis -90 7.62852e-016 20   XYZ
    dof rx
    limits (-90.0 20.0)
  end
  begin
     id 6 
     name rhipjoint
     direction -0.524745 -0.766967 0.36933   
     length 2.44538  
     axis 0 0 0  XYZ 
  end
  begin
     id 7 
     name rfemur
     direction -0.34202 -0.939693 0   
     length 7.61604   
     axis 0 0 -20   XYZ
    dof rx ry rz
    limits (-160.0 20.0)
           (-70.0 70.0)
           (-70.0 60.0)
  end
  begin
     id 8 
     name rtibia
     direction -0.34202 -0.939693 0   
     length 7.61056   
     axis 0 0 -20   XYZ
    dof rx
    limits (-10.0 170.0)
 end
 begin
     id 9 
     name rfoot
     direction -0.12616 -0.346623 0.929482   
     length 2.46372  
     axis -90 -7.62852e-016 -20   XYZ
    dof rx rz
    limits (-45.0 90.0)
           (-20.0 70.0)
  end
  begin
     id 10 
     name rtoes
     direction -1.53531e-011 -4.22004e-011 1   
     length 1.21611   
     axis -90 -7.62852e-016 -20   XYZ
    dof rx
    limits (-90.0 20.0)
  end
  begin
     id 11 
     name lowerback
     direction -0.000778023 0.997293 -0.0735223   
     length 2.06139   
     axis 0 0 0   XYZ
    dof rx ry rz
    limits (-20.0 45.0)
           (-30.0 30.0)
           (-30.0 30.0)
  end
  begin
     id 12 
     name upperback
     direction 0.0222598 0.999722 -0.0078355   
     length 2.06383   
     axis 0 0 0   XYZ
    dof rx ry rz
    limits (-20.0 45.0)
           (-30.0 30.0)
           (-30.0 30.0)
  end
  begin
     id 13 
     name thorax
     direction 0.0219654 0.999405 0.0265994   
     length 2.07163   
     axis 0 0 0   XYZ
    dof rx ry rz
    limits (-20.0 45.0)
           (-30.0 30.0)
           (-30.0 30.0)
  end
  begin
     id 14 
     name lowerneck
     direction 0.0213282 0.988147 0.15202   
     length 1.75969   
     axis 0 0 0   XYZ
    dof rx ry rz
    limits (-20.0 45.0)
           (-30.0 30.0)
           (-30.0 30.0)
  end
  begin
     id 15 
     name upperneck
     direction -0.0546456 0.982624 -0.177379   
     length 1.79244   
     axis 0 0 0   XYZ
    dof rx ry rz
    limits (-20.0 45.0)
           (-30.0 30.0)
           (-30.0 30.0)
  end
  begin
     id 16
     name head
     direction -0.0199987 0.996855 -0.076686  
     length 1.80555  
     axis 0 0 0   XYZ
    dof rx ry rz
    limits (-20.0 45.0)
           (-30.0 30.0)
           (-30.0 30.0)
  end
  begin
     id 17 
     name lclavicle
     direction 0.929565 0.363219 -0.063096  
     length 3.55722  
     axis 0 0 0   XYZ
    dof ry rz
    limits (-20.0 10.0)
           (0.0 20.0)
  end
  begin
     id 18 
     name lhumerus
     direction 1 -4.48993e-011 -2.36203e-027   
     length 4.92785   
     axis 180 -30 -90   XYZ
    dof rx ry rz
    limits (-60.0 90.0)
           (-90.0 90.0)
           (-90.0 90.0)
  end
  begin
     id 19
     name lradius
     direction 1 -4.48947e-011 2.02997e-027   
     length 3.44052   
     axis 180 -30 -90   XYZ
    dof rx
    limits (-10.0 170.0)
  end
  begin
     id 20
     name lwrist
     direction 1 -4.48962e-011 1.45991e-027   
     length 1.72026   
     axis 1.49639e-024 90 90   XYZ
    dof ry
    limits (-180.0 0.0)
 end
  begin
     id 21 
     name lhand
     direction 1 -4.48984e-011 2.91906e-027   
     length 0.654326   
     axis -1.863e-015 90 90   XYZ
    dof rx rz
    limits (-90.0 90.0)
           (-45.0 45.0)
  end
  begin
     id 22 
     name lfingers
     direction 1 -4.48961e-011 5.83968e-027   
     length 0.527534   
     axis -3.72598e-015 90 90   XYZ
    dof rx
    limits (0.0 90.0)
  end
  begin
     id 23
     name lthumb
     direction 0.707107 -6.34963e-011 0.707107   
     length 0.757437   
     axis -90 45 -6.68868e-015   XYZ
    dof rx rz
    limits (-45.0 45.0)
           (-45.0 45.0)
  end
  begin
     id 24 
     name rclavicle
     direction -0.902944 0.422599 -0.0781198   
     length 3.54432  
     axis 0 0 0   XYZ 
    dof ry rz
    limits (-10.0 20.0)
           (-20.0 0.0)
  end
  begin
     id 25 
     name rhumerus
     direction -1 -4.48953e-011 -4.75835e-028  
     length 5.09181   
     axis 180 30 90   XYZ
    dof rx ry rz
    limits (-90.0 60.0)
           (-90.0 90.0)
           (-90.0 90.0)
  end
  begin
     id 26 
     name rradius
     direction -1 -4.48986e-011 -3.25889e-027   
     length 3.49865   
     axis 180 30 90   XYZ
    dof rx
    limits (-10.0 170.0)
  end
  begin
     id 27 
     name rwrist
     direction -1 -4.48963e-011 1.45989e-027   
     length 1.74933   
     axis 1.49639e-024 -90 -90   XYZ
    dof ry
    limits (-180.0 0.0)
  end
  begin
     id 28
     name rhand
     direction -1 -4.49003e-011 2.91844e-027   
     length 0.66641   
     axis -1.863e-015 -90 -90   XYZ
    dof rx rz
    limits (-90.0 90.0)
           (-45.0 45.0)
  end
  begin
     id 29
     name rfingers
     direction -1 -4.48973e-011 5.83886e-027   
     length 0.537277   
     axis -3.72598e-015 -90 -90   XYZ
    dof rx
    limits (0.0 90.0)
  end
  begin
     id 30
     name rthumb
     direction -0.707107 -6.34976e-011 0.707107   
     length 0.771425   
     axis -90 -45 6.68868e-015   XYZ
    dof rx rz
    limits (-45.0 45.0)
           (-45.0 45.0)
  end
:hierarchy
  begin
    root lhipjoint rhipjoint lowerback
    lhipjoint lfemur
    lfemur ltibia
    ltibia lfoot
    lfoot ltoes
    rhipjoint rfemur
    rfemur rtibia
    rtibia rfoot
    rfoot rtoes
    lowerback upperback
    upperback thorax
    thorax lowerneck lclavicle rclavicle
    lowerneck upperneck
    upperneck head
    lclavicle lhumerus
    lhumerus lradius
    lradius lwrist
    lwrist lhand lthumb
    lhand lfingers
    rclavicle rhumerus
    rhumerus rradius
    rradius rwrist
    rwrist rhand rthumb
    rhand rfingers
  end

#!OML:ASF H:\LiuWeirdWalks\Patient Classification 1\Patient 1\Session 1\male.ASF
:FULLY-SPECIFIED
:DEGREES
198
root 0.657798 18.0603 -30.5663 5.19559 6.73565 8.19893
lowerback 4.12726 -0.179026 6.51814
upperback -0.70887 0.472188 10.8377
thorax -3.12957 0.242572 7.74899
lowerneck -30.1512 0.766847 18.1512
upperneck 35.4246 0.285069 -22.3141
head 19.3199 -0.327474 -15.3163
rclavicle 0 1.08139e-013
rhumerus -36.4881 -24.1413 -43.9468
rradius 25.1456
rwrist -7.65899
rhand -17.6096 -5.05362
rfingers 7.12502
rthumb 8.64705 -34.8565
lclavicle 0 1.08139e-013
lhumerus -32.0626 -11.2859 94.7648
lradius 44.7858
lwrist 11.7421
lhand -12.6444 -3.36434
lfingers 7.12502
lthumb 13.4359 26.1823
rfemur -10.9088 0.639487 6.15797
rtibia 30.089
rfoot -13.2506 -22.9667
rtoes -4.55698
lfemur -5.55193 1.18096 -28.7122
ltibia 14.2668
lfoot -5.28067 9.85025
ltoes -14.8803
199
root 0.651335 18.0598 -30.5638 5.18515 6.67763 8.22642
lowerback 4.15025 -0.188718 6.49638
upperback -0.770767 0.467816 10.8016
thorax -3.20722 0.240098 7.7233
lowerneck -30.0337 0.786217 18.2054
upperneck 35.3656 0.321925 -22.3586
head 19.262 -0.315565 -15.3197
rclavicle -9.93923e-015 -2.8625e-014
rhumerus -36.622 -23.9096 -44.1381
rradius 25.395
rwrist -8.00769
rhand -17.6555 -5.10556
rfingers 7.12502
rthumb 8.60279 -34.9103
lclavicle -9.93923e-015 -2.8625e-014
lhumerus -32.1889 -11.5425 94.9326
lradius 45.0248
lwrist 11.5685
lhand -12.3693 -3.71931
lfingers 7.12502
lthumb 13.7011 25.8097
rfemur -10.9231 0.650129 6.14657
rtibia 30.1235
rfoot -13.2836 -22.9287
rtoes -4.5459
lfemur -5.50189 1.21103 -28.7192
ltibia 14.2024
lfoot -5.24098 9.87552
ltoes -14.8249
200
root 0.645361 18.0593 -30.5618 5.17612 6.61512 8.25571
lowerback 4.17266 -0.195707 6.48025
upperback -0.834648 0.467272 10.7608
thorax -3.28688 0.239352 7.68903
lowerneck -29.8953 0.808454 18.2833
upperneck 35.2838 0.357167 -22.4142
head 19.1827 -0.304898 -15.3259
rclavicle -1.19271e-015 1.11319e-013
rhumerus -36.7505 -23.6651 -44.3431
rradius 25.656
rwrist -8.38106
rhand -17.714 -5.18617
rfingers 7.12502
rthumb 8.54636 -34.9932
lclavicle -1.19271e-015 1.11319e-013
lhumerus -32.3389 -11.8015 95.1063
lradius 45.2522
lwrist 11.3163
lhand -12.0579 -4.09388
lfingers 7.12502
lthumb 14.0012 25.4146
rfemur -10.9422 0.6569 6.12999
rtibia 30.1579
rfoot -13.3117 -22.8829
rtoes -4.53849
lfemur -5.45492 1.23128 -28.7315
ltibia 14.1389
lfoot -5.19722 9.91373
ltoes -14.9049
201
root 0.639765 18.0588 -30.5605 5.16642 6.55076 8.28454
lowerback 4.19993 -0.205565 6.45859
upperback -0.852143 0.457563 10.7333
thorax -3.3197 0.234313 7.67227
lowerneck -29.877 0.828413 18.2821
upperneck 35.1959 0.393261 -22.4267
head 19.1341 -0.302301 -15.2987
rclavicle 3.97569e-016 4.45278e-014
rhumerus -36.751 -23.4303 -44.609
rradius 25.9203
rwrist -8.78773
rhand -17.7945 -5.29223
rfingers 7.12502
rthumb 8.46862 -35.1024
lclavicle 3.97569e-016 4.45278e-014
lhumerus -32.3891 -12.0264 95.2719
lradius 45.4586
lwrist 11.0077
lhand -11.717 -4.35774
lfingers 7.12502
lthumb 14.3297 25.1277
rfemur -10.9617 0.665629 6.1116
rtibia 30.1877
rfoot -13.331 -22.836
rtoes -4.53676
lfemur -5.41327 1.242 -28.7464
ltibia 14.0861
lfoot -5.15437 9.96346
ltoes -15.1189
202
root 0.634619 18.0587 -30.5594 5.16409 6.48033 8.30254
lowerback 4.21995 -0.217294 6.44537
upperback -0.872807 0.445539 10.7149
thorax -3.35166 0.228092 7.6611
lowerneck -29.852 0.840136 18.2502
upperneck 35.1248 0.429982 -22.4237
head 19.0933 -0.300485 -15.2584
rclavicle 7.95139e-016 6.36111e-015
rhumerus -36.7234 -23.136 -44.9015
rradius 26.1971
rwrist -9.22101
rhand -17.8789 -5.39768
rfingers 7.12502
rthumb 8.38716 -35.2112
lclavicle 7.95139e-016 6.36111e-015
lhumerus -32.4456 -12.2279 95.4494
lradius 45.637
lwrist 10.6041
lhand -11.3667 -4.55687
lfingers 7.12502
lthumb 14.6672 24.9044
rfemur -10.9905 0.685836 6.10324
rtibia 30.2092
rfoot -13.3433 -22.7951
rtoes -4.53583
lfemur -5.389 1.24318 -28.7534
ltibia 14.0487
lfoot -5.12096 10.0287
ltoes -15.2584
203
root 0.629768 18.0591 -30.5587 5.16823 6.40033 8.30594
lowerback 4.22817 -0.215215 6.45032
upperback -0.903211 0.45234 10.6907
thorax -3.38864 0.230815 7.63169
lowerneck -29.8095 0.864521 18.2801
upperneck 35.0665 0.465864 -22.4471
head 19.0587 -0.289804 -15.2529
rclavicle -5.1684e-015 2.54444e-014
rhumerus -36.7331 -22.819 -45.1924
rradius 26.4879
rwrist -9.64795
rhand -17.9391 -5.47269
rfingers 7.12502
rthumb 8.32913 -35.2885
lclavicle -5.1684e-015 2.54444e-014
lhumerus -32.5226 -12.4609 95.6337
lradius 45.7988
lwrist 10.1648
lhand -10.9923 -4.65766
lfingers 7.12502
lthumb 15.0279 24.777
rfemur -11.0293 0.723293 6.1099
rtibia 30.2215
rfoot -13.3438 -22.7629
rtoes -4.53503
lfemur -5.38108 1.24226 -28.7476
ltibia 14.026
lfoot -5.09204 10.105
ltoes -15.0257
204
root 0.625244 18.0596 -30.5578 5.17047 6.32513 8.29871
lowerback 4.22412 -0.0628592 6.5788
upperback -0.936311 0.658571 10.4942
thorax -3.43387 0.327829 7.32525
lowerneck -30.0086 0.614836 18.1385
upperneck 35.2508 0.0120073 -22.1645
head 19.0213 -0.468745 -15.161
rclavicle -8.34896e-015 7.95139e-014
rhumerus -37.1821 -22.9641 -45.3669
rradius 26.8316
rwrist -10.0133
rhand -17.9638 -5.50445
rfingers 7.12502
rthumb 8.3053 -35.3212
lclavicle -8.34896e-015 7.95139e-014
lhumerus -32.5677 -13.3301 95.7628
lradius 45.9285
lwrist 9.81102
lhand -10.569 -4.70568
lfingers 7.12502
lthumb 15.4357 24.698
rfemur -11.0615 0.770392 6.12919
rtibia 30.226
rfoot -13.3395 -22.7443
rtoes -4.53224
lfemur -5.3763 1.23099 -28.7309
ltibia 14.0143
lfoot -5.06622 10.1891
ltoes -14.6209
205
root 0.620901 18.0601 -30.5564 5.16896 6.25934 8.28567
lowerback 4.21176 0.0535344 6.68691
upperback -0.962521 0.815182 10.3414
thorax -3.46221 0.40102 7.08315
lowerneck -30.1774 0.417485 18.0066
upperneck 35.4183 -0.340313 -21.9312
head 19.0156 -0.604953 -15.0866
rclavicle -2.06736e-014 2.8625e-014
rhumerus -37.5066 -23.0251 -45.5536
rradius 27.1401
rwrist -10.2967
rhand -17.9378 -5.47966
rfingers 7.12502
rthumb 8.33036 -35.2954
lclavicle -2.06736e-014 2.8625e-014
lhumerus -32.6183 -14.0374 95.9074
lradius 46.0409
lwrist 9.43334
lhand -10.1218 -4.70963
lfingers 7.12502
lthumb 15.8663 24.6603
rfemur -11.0832 0.823503 6.15715
rtibia 30.2264
rfoot -13.3351 -22.7415
rtoes -4.5234
lfemur -5.36822 1.21719 -28.7064
ltibia 14.0074
lfoot -5.05703 10.267
ltoes -12.0931
206
root 0.616948 18.0603 -30.5547 5.16134 6.19227 8.27326
lowerback 4.1917 0.161386 6.79127
upperback -0.972391 0.957263 10.1993
thorax -3.46671 0.467194 6.85635
lowerneck -30.3561 0.232089 17.8664
upperneck 35.5837 -0.669194 -21.7028
head 19.0254 -0.731039 -15.0132
rclavicle -1.23246e-014 6.99722e-014
rhumerus -37.7678 -23.1138 -45.7289
rradius 27.4096
rwrist -10.4669
rhand -17.8594 -5.37401
rfingers 7.12502
rthumb 8.40601 -35.1867
lclavicle -1.23246e-014 6.99722e-014
lhumerus -32.6548 -14.6881 96.048
lradius 46.1372
lwrist 9.06988
lhand -9.64291 -4.75846
lfingers 7.12502
lthumb 16.3275 24.5742
rfemur -11.098 0.876283 6.18297
rtibia 30.2268
rfoot -13.3284 -22.7385
rtoes -4.51897
lfemur -5.35205 1.209 -28.6835
ltibia 13.9993
lfoot -5.05292 10.3406
ltoes -10.2523
207
root 0.613539 18.0604 -30.5531 5.15218 6.11416 8.25858
lowerback 4.17629 0.20818 6.85193
upperback -0.968392 1.01734 10.1352
thorax -3.45529 0.494715 6.74669
lowerneck -30.469 0.157062 17.7663
upperneck 35.6718 -0.794497 -21.5842
head 19.0589 -0.779081 -14.9685
rclavicle 0 1.59028e-014
rhumerus -37.7972 -23.0498 -45.938
rradius 27.62
rwrist -10.5665
rhand -17.7498 -5.23541
rfingers 7.12502
rthumb 8.51181 -35.0439
lclavicle 0 1.59028e-014
lhumerus -32.6933 -15.0366 96.2051
lradius 46.2261
lwrist 8.703
lhand -9.14691 -4.84232
lfingers 7.12502
lthumb 16.805 24.4505
rfemur -11.1174 0.925123 6.20676
rtibia 30.23
rfoot -13.3213 -22.7205
rtoes -4.51562
lfemur -5.33448 1.2069 -28.6609
ltibia 13.9862
lfoot -5.04545 10.4188
ltoes -8.87
208
root 0.610478 18.0603 -30.5518 5.14484 6.02359 8.24012
lowerback 4.17547 0.314767 6.95537
upperback -0.965851 1.15911 10.0083
thorax -3.45624 0.560904 6.53796
lowerneck -30.66 -0.0162025 17.6176
upperneck 35.8145 -1.09839 -21.3671
head 19.0731 -0.897417 -14.8945
rclavicle 1.19271e-015 9.22361e-014
rhumerus -37.973 -23.1961 -46.0828
rradius 27.8271
rwrist -10.5663
rhand -17.5948 -5.03201
rfingers 7.12502
rthumb 8.6614 -34.8343
lclavicle 1.19271e-015 9.22361e-014
lhumerus -32.7265 -15.6057 96.3377
lradius 46.3004
lwrist 8.38613
lhand -8.65118 -4.9014
lfingers 7.12502
lthumb 17.2822 24.3502
rfemur -11.1471 0.969743 6.23058
rtibia 30.237
rfoot -13.3128 -22.6861
rtoes -4.51916
lfemur -5.32026 1.21775 -28.6362
ltibia 13.9687
lfoot -5.0339 10.4957
ltoes -8.62661
209
root 0.607466 18.0601 -30.5507 5.13841 5.9275 8.22288
lowerback 4.19581 0.466332 7.08624
upperback -0.972573 1.36432 9.83036
thorax -3.47935 0.656987 6.25399
lowerneck -30.8854 -0.273152 17.4323
upperneck 35.9875 -1.54856 -21.0733
head 19.0563 -1.07413 -14.7926
rclavicle -4.77083e-015 6.67916e-014
rhumerus -38.2726 -23.4942 -46.1783
rradius 28.039
rwrist -10.5108
rhand -17.441 -4.82514
rfingers 7.12502
rthumb 8.8098 -34.6213
lclavicle -4.77083e-015 6.67916e-014
lhumerus -32.7789 -16.3466 96.454
lradius 46.378
lwrist 8.14007
lhand -8.16582 -4.88046
lfingers 7.12502
lthumb 17.7493 24.3295
rfemur -11.1813 1.00735 6.25134
rtibia 30.2475
rfoot -13.3077 -22.6388
rtoes -4.52329
lfemur -5.30738 1.24529 -28.6129
ltibia 13.9486
lfoot -5.02506 10.5611
ltoes -9.73683
210
root 0.604267 18.06 -30.5497 5.13212 5.84043 8.20172
lowerback 4.21496 0.562872 7.1729
upperback -0.970545 1.4952 9.72033
thorax -3.48978 0.718173 6.07514
lowerneck -31.042 -0.440971 17.2863
upperneck 36.0858 -1.83294 -20.8743
head 19.0452 -1.18914 -14.7129
rclavicle -1.19271e-014 -6.67916e-014
rhumerus -38.3842 -23.6577 -46.3093
rradius 28.2206
rwrist -10.4504
rhand -17.3055 -4.63716
rfingers 7.12502
rthumb 8.94051 -34.4277
lclavicle -1.19271e-014 -6.67916e-014
lhumerus -32.8257 -16.8542 96.5872
lradius 46.4333
lwrist 7.85789
lhand -7.71929 -4.86018
lfingers 7.12502
lthumb 18.1789 24.3103
rfemur -11.2135 1.03987 6.27839
rtibia 30.2608
rfoot -13.3089 -22.5933
rtoes -4.5301
lfemur -5.29441 1.28715 -28.5828
ltibia 13.9278
lfoot -5.02139 10.6046
ltoes -11.8321
